<svg width="24" height="24" viewBox="0 0 24 24" fill="none" xmlns="http://www.w3.org/2000/svg">
<g clip-path="url(#clip0_39_2)">
<path d="M20.0293 2.99999C19.8931 2.99607 19.7575 3.02004 19.6309 3.07042C19.5043 3.1208 19.3893 3.19653 19.293 3.29295L17.2578 5.32811C15.6877 4.54558 13.9127 3.99999 12 3.99999C8.66667 3.99999 5.73358 5.63161 3.61914 7.34959C2.56192 8.20859 1.70591 9.09416 1.09375 9.85936C0.78767 10.242 0.542283 10.5925 0.357422 10.916C0.172561 11.2395 0 11.4583 0 12C0 12.5417 0.172561 12.7605 0.357422 13.084C0.542283 13.4075 0.78767 13.758 1.09375 14.1406C1.70591 14.9058 2.56192 15.7914 3.61914 16.6504C4.03176 16.9856 4.48322 17.3137 4.95508 17.6308L3.29297 19.293C3.10548 19.4805 3.00015 19.7348 3.00015 20C3.00015 20.2652 3.10548 20.5195 3.29297 20.707C3.4805 20.8945 3.73482 20.9998 4 20.9998C4.26518 20.9998 4.5195 20.8945 4.70703 20.707L6.74219 18.6719C8.31229 19.4544 10.0873 20 12 20C15.3333 20 18.2664 18.3684 20.3809 16.6504C21.4381 15.7914 22.2941 14.9058 22.9062 14.1406C23.2123 13.758 23.4577 13.4075 23.6426 13.084C23.8274 12.7605 24 12.5417 24 12C24 11.4583 23.8274 11.2395 23.6426 10.916C23.4577 10.5925 23.2123 10.242 22.9062 9.85936C22.2941 9.09416 21.4381 8.20859 20.3809 7.34959C19.9682 7.01434 19.5168 6.68632 19.0449 6.36913L20.707 4.70702C20.8945 4.51949 20.9998 4.26516 20.9998 3.99999C20.9998 3.73481 20.8945 3.48048 20.707 3.29295C20.5268 3.11242 20.2843 3.00761 20.0293 2.99999ZM12 5.99999C13.2968 5.99999 14.5673 6.32729 15.75 6.83592L12.0684 10.5176C12.0231 10.3488 12.0001 10.1748 12 9.99998C12.0002 9.61513 12.1114 9.23849 12.3203 8.91526C12.5292 8.59204 12.8269 8.33595 13.1777 8.17772C12.7962 8.06003 12.3992 8.00012 12 7.99999C11.9798 7.99983 11.9596 7.99983 11.9395 7.99999C10.8891 8.01589 9.88719 8.44432 9.15009 9.19275C8.41299 9.94118 7.99988 10.9495 8 12C8.00017 12.7145 8.1917 13.4158 8.55469 14.0312L6.39844 16.1875C5.85721 15.8467 5.34745 15.4787 4.88086 15.0996C3.93808 14.3336 3.16909 13.5317 2.65625 12.8906C2.39983 12.5701 2.20772 12.2878 2.0957 12.0918C2.07328 12.0525 2.07384 12.0348 2.06055 12C2.07384 11.9652 2.07328 11.9474 2.0957 11.9082C2.20772 11.7122 2.39983 11.4299 2.65625 11.1094C3.16909 10.4683 3.93808 9.66638 4.88086 8.90038C6.76642 7.36836 9.33333 5.99999 12 5.99999ZM17.6016 7.81249C18.1428 8.1533 18.6525 8.52127 19.1191 8.90038C20.0619 9.66638 20.8309 10.4683 21.3438 11.1094C21.6002 11.4299 21.7923 11.7122 21.9043 11.9082C21.9267 11.9474 21.9262 11.9652 21.9395 12C21.9262 12.0348 21.9267 12.0525 21.9043 12.0918C21.7923 12.2878 21.6002 12.5701 21.3438 12.8906C20.8309 13.5317 20.0619 14.3336 19.1191 15.0996C17.2336 16.6316 14.6667 18 12 18C10.7032 18 9.43271 17.6727 8.25 17.164L9.96875 15.4453C10.5841 15.8083 11.2855 15.9998 12 16C13.0609 16 14.0783 15.5786 14.8284 14.8284C15.5786 14.0783 16 13.0609 16 12C15.9997 11.6014 15.9398 11.2051 15.8223 10.8242C15.6638 11.1747 15.4075 11.472 15.0843 11.6805C14.7611 11.8891 14.3846 12 14 12C13.8252 11.9999 13.6512 11.9769 13.4824 11.9316L17.6016 7.81249Z" fill="#C8E0CA"/>
</g>
<defs>
<clipPath id="clip0_39_2">
<rect width="24" height="24" fill="white"/>
</clipPath>
</defs>
</svg>
