<svg width="24" height="25" viewBox="0 0 24 25" fill="none" xmlns="http://www.w3.org/2000/svg">
<g clip-path="url(#clip0_5_63)">
<path d="M12 4.06976C8.66667 4.06976 5.73358 5.70139 3.61914 7.41937C2.56192 8.27836 1.70591 9.16394 1.09375 9.92914C0.78767 10.3117 0.542283 10.6623 0.357422 10.9858C0.172561 11.3093 0 11.5281 0 12.0698C0 12.6114 0.172561 12.8302 0.357422 13.1537C0.542283 13.4773 0.78767 13.8278 1.09375 14.2104C1.70591 14.9756 2.56192 15.8612 3.61914 16.7202C5.73358 18.4381 8.66667 20.0698 12 20.0698C15.3333 20.0698 18.2664 18.4381 20.3809 16.7202C21.4381 15.8612 22.2941 14.9756 22.9062 14.2104C23.2123 13.8278 23.4577 13.4773 23.6426 13.1537C23.8274 12.8302 24 12.6114 24 12.0698C24 11.5281 23.8274 11.3093 23.6426 10.9858C23.4577 10.6623 23.2123 10.3117 22.9062 9.92914C22.2941 9.16394 21.4381 8.27836 20.3809 7.41937C18.2664 5.70139 15.3333 4.06976 12 4.06976ZM12 6.06976C14.6667 6.06976 17.2336 7.43814 19.1191 8.97015C20.0619 9.73616 20.8309 10.5381 21.3438 11.1791C21.6002 11.4997 21.7923 11.7819 21.9043 11.978C21.9267 12.0172 21.9262 12.035 21.9395 12.0698C21.9262 12.1045 21.9267 12.1223 21.9043 12.1616C21.7923 12.3576 21.6002 12.6399 21.3438 12.9604C20.8309 13.6014 20.0619 14.4034 19.1191 15.1694C17.2336 16.7014 14.6667 18.0698 12 18.0698C9.33333 18.0698 6.76642 16.7014 4.88086 15.1694C3.93808 14.4034 3.16909 13.6014 2.65625 12.9604C2.39983 12.6399 2.20772 12.3576 2.0957 12.1616C2.07328 12.1223 2.07384 12.1045 2.06055 12.0698C2.07384 12.035 2.07328 12.0172 2.0957 11.978C2.20772 11.7819 2.39983 11.4997 2.65625 11.1791C3.16909 10.5381 3.93808 9.73616 4.88086 8.97015C6.76642 7.43814 9.33333 6.06976 12 6.06976ZM11.9395 8.06976C10.8891 8.08566 9.88719 8.5141 9.15009 9.26253C8.41298 10.011 7.99988 11.0193 8 12.0698C8 13.1306 8.42143 14.148 9.17157 14.8982C9.92172 15.6483 10.9391 16.0698 12 16.0698C13.0609 16.0698 14.0783 15.6483 14.8284 14.8982C15.5786 14.148 16 13.1306 16 12.0698C15.9997 11.6712 15.9398 11.2749 15.8223 10.894C15.6638 11.2444 15.4075 11.5418 15.0843 11.7503C14.7611 11.9588 14.3846 12.0698 14 12.0698C13.4696 12.0698 12.9609 11.859 12.5858 11.484C12.2107 11.1089 12 10.6002 12 10.0698C12.0002 9.68491 12.1114 9.30827 12.3203 8.98504C12.5292 8.66181 12.8269 8.40573 13.1777 8.2475C12.7962 8.12981 12.3992 8.0699 12 8.06976C11.9798 8.06961 11.9596 8.06961 11.9395 8.06976Z" fill="#C8E0CA"/>
</g>
<defs>
<clipPath id="clip0_5_63">
<rect width="24" height="24" fill="white" transform="translate(0 0.0697632)"/>
</clipPath>
</defs>
</svg>
