<svg width="34" height="34" viewBox="0 0 34 34" fill="none" xmlns="http://www.w3.org/2000/svg">
<path fill-rule="evenodd" clip-rule="evenodd" d="M8.18636 17.555C8.18636 16.5106 8.35982 15.5092 8.66943 14.5701L3.25025 10.4318C2.19408 12.5762 1.59902 14.9925 1.59902 17.555C1.59902 20.1153 2.19335 22.5302 3.24805 24.6731L8.66431 20.5268C8.35763 19.592 8.18636 18.5943 8.18636 17.555Z" fill="#FBBC05"/>
<path fill-rule="evenodd" clip-rule="evenodd" d="M17.7014 8.05346C19.9704 8.05346 22.0198 8.85743 23.63 10.173L28.3143 5.49535C25.4598 3.01033 21.8002 1.47546 17.7014 1.47546C11.338 1.47546 5.86908 5.11456 3.25024 10.4318L8.66943 14.5701C9.91809 10.7797 13.4774 8.05346 17.7014 8.05346Z" fill="#EB4335"/>
<path fill-rule="evenodd" clip-rule="evenodd" d="M17.7014 27.0565C13.4774 27.0565 9.91809 24.3303 8.66943 20.5399L3.25024 24.6775C5.86908 29.9954 11.338 33.6345 17.7014 33.6345C21.6289 33.6345 25.3786 32.24 28.1928 29.627L23.0488 25.6503C21.5974 26.5646 19.7698 27.0565 17.7014 27.0565Z" fill="#34A853"/>
<path fill-rule="evenodd" clip-rule="evenodd" d="M33.0719 17.555C33.0719 16.6049 32.9255 15.5816 32.7059 14.6315H17.7014V20.844H26.3381C25.9063 22.9621 24.7308 24.5905 23.0489 25.6503L28.1928 29.6271C31.1491 26.8833 33.0719 22.7962 33.0719 17.555Z" fill="#4285F4"/>
</svg>
