<svg width="154" height="152" viewBox="0 0 154 152" fill="none" xmlns="http://www.w3.org/2000/svg">
<g clip-path="url(#clip0_8_92)">
<path d="M76.76 24.18C76.76 24.18 90.88 37.59 89.82 58.06C88.76 78.53 76.76 93 76.76 93C76.76 93 63 78.53 63 58.59C63 38.65 76.76 24.18 76.76 24.18Z" stroke="#64BD9F" stroke-width="6" stroke-miterlimit="10" stroke-linecap="round" stroke-linejoin="round"/>
<path d="M23.28 76.9C23.28 76.9 42.75 77.42 55.66 93.34C68.57 109.26 69.34 128.04 69.34 128.04C69.34 128.04 49.43 126.5 36.08 111.68C22.73 96.86 23.28 76.9 23.28 76.9Z" stroke="#64BD9F" stroke-width="6" stroke-miterlimit="10" stroke-linecap="round" stroke-linejoin="round"/>
<path d="M130.37 76.9C130.37 76.9 110.9 77.42 97.99 93.34C85.08 109.26 84.31 128.04 84.31 128.04C84.31 128.04 104.22 126.5 117.57 111.68C130.92 96.86 130.37 76.9 130.37 76.9Z" stroke="#64BD9F" stroke-width="6" stroke-miterlimit="10" stroke-linecap="round" stroke-linejoin="round"/>
<path d="M69.33 148.4V128.05H84.32V148.39C121.51 144.65 150.54 113.62 150.54 75.88C150.53 35.63 117.5 3 76.76 3C36.02 3 3 35.63 3 75.88C3 113.65 32.08 144.71 69.33 148.4Z" stroke="#64BD9F" stroke-width="6" stroke-miterlimit="10" stroke-linecap="round" stroke-linejoin="round"/>
</g>
<defs>
<clipPath id="clip0_8_92">
<rect width="153.53" height="151.4" fill="white"/>
</clipPath>
</defs>
</svg>
