<svg width="36" height="37" viewBox="0 0 36 37" fill="none" xmlns="http://www.w3.org/2000/svg">
<path d="M25.425 28.9698C25.0775 30.6815 23.5642 31.9698 21.75 31.9698H8.25C6.17893 31.9698 4.5 30.2909 4.5 28.2198V17.7198C4.5 15.9056 5.78832 14.3923 7.5 14.0448V12.4698C7.5 8.32765 10.8579 4.96979 15 4.96979C19.1421 4.96979 22.5 8.32765 22.5 12.4698V14.0448C24.2117 14.3923 25.5 15.9056 25.5 17.7198V19.9698H27.75C29.8211 19.9698 31.5 21.6487 31.5 23.7198V25.2198C31.5 27.2909 29.8211 28.9698 27.75 28.9698H25.425ZM23.872 28.9698H17.25C15.1789 28.9698 13.5 27.2909 13.5 25.2198V23.7198C13.5 21.6487 15.1789 19.9698 17.25 19.9698H24V17.7198C24 16.5355 23.0851 15.5649 21.9235 15.4764C21.8678 15.4896 21.8097 15.4965 21.75 15.4965C21.681 15.4965 21.6142 15.4872 21.5508 15.4698H8.25C7.00736 15.4698 6 16.4771 6 17.7198V28.2198C6 29.4624 7.00736 30.4698 8.25 30.4698H21.75C22.7297 30.4698 23.5631 29.8437 23.872 28.9698ZM9 13.9698H21V12.4698C21 9.15608 18.3137 6.46979 15 6.46979C11.6863 6.46979 9 9.15608 9 12.4698V13.9698ZM30 25.2198V23.7198C30 22.4771 28.9926 21.4698 27.75 21.4698H17.25C16.0074 21.4698 15 22.4771 15 23.7198V25.2198C15 26.4624 16.0074 27.4698 17.25 27.4698H27.75C28.9926 27.4698 30 26.4624 30 25.2198ZM17.25 22.9698H18.75C19.1642 22.9698 19.5 23.3056 19.5 23.7198V25.2198C19.5 25.634 19.1642 25.9698 18.75 25.9698H17.25C16.8358 25.9698 16.5 25.634 16.5 25.2198V23.7198C16.5 23.3056 16.8358 22.9698 17.25 22.9698ZM21.75 22.9698H23.25C23.6642 22.9698 24 23.3056 24 23.7198V25.2198C24 25.634 23.6642 25.9698 23.25 25.9698H21.75C21.3358 25.9698 21 25.634 21 25.2198V23.7198C21 23.3056 21.3358 22.9698 21.75 22.9698ZM26.25 22.9698H27.75C28.1642 22.9698 28.5 23.3056 28.5 23.7198V25.2198C28.5 25.634 28.1642 25.9698 27.75 25.9698H26.25C25.8358 25.9698 25.5 25.634 25.5 25.2198V23.7198C25.5 23.3056 25.8358 22.9698 26.25 22.9698Z" fill="#C8E0CA"/>
</svg>
