<svg width="31" height="34" viewBox="0 0 31 34" fill="none" xmlns="http://www.w3.org/2000/svg">
<path d="M23.1085 25.9493C23.1085 21.7428 18.6152 20.8124 15.4057 20.8124C12.1962 20.8124 7.70284 21.7428 7.70284 25.9493M26.9599 16.6499C26.9599 23.5466 21.787 29.1373 15.4057 29.1373C9.02444 29.1373 3.85142 23.5466 3.85142 16.6499C3.85142 9.75329 9.02444 4.16248 15.4057 4.16248C21.787 4.16248 26.9599 9.75329 26.9599 16.6499ZM19.2571 12.4874C19.2571 14.7864 17.5328 16.6499 15.4057 16.6499C13.2785 16.6499 11.5543 14.7864 11.5543 12.4874C11.5543 10.1886 13.2785 8.32495 15.4057 8.32495C17.5328 8.32495 19.2571 10.1886 19.2571 12.4874Z" stroke="#C8E0CA" stroke-width="2" stroke-linecap="round" stroke-linejoin="round"/>
</svg>
